<svg width="29" height="27" viewBox="0 0 29 27" fill="none" xmlns="http://www.w3.org/2000/svg">
<path d="M10.8644 6.22878C11.0211 6.22878 11.0994 6.1374 11.1256 5.99371C11.5696 3.9044 11.5434 3.82606 13.7242 3.38207C13.8808 3.356 13.9723 3.26457 13.9723 3.12093C13.9723 2.96421 13.8808 2.87278 13.7242 2.84671C11.5434 2.40271 11.5696 2.32438 11.1256 0.248099C11.0994 0.104466 11.0211 0 10.8644 0C10.7077 0 10.6294 0.104466 10.5902 0.248099C10.1593 2.32438 10.1854 2.40271 7.9916 2.84671C7.84797 2.87278 7.7435 2.96421 7.7435 3.12093C7.7435 3.26457 7.84797 3.356 7.9916 3.38207C10.1854 3.82606 10.1593 3.9044 10.5902 5.99371C10.6294 6.1374 10.7077 6.22878 10.8644 6.22878ZM21.6505 10.8383C21.8333 10.8383 21.9378 10.7208 21.9639 10.551C22.421 8.06999 22.434 7.91327 25.0586 7.45624C25.2284 7.43016 25.3589 7.3126 25.3589 7.1298C25.3589 6.947 25.2284 6.84253 25.0586 6.80331C22.434 6.35937 22.421 6.20265 21.9639 3.7216C21.9378 3.55183 21.8333 3.42124 21.6505 3.42124C21.4677 3.42124 21.3502 3.55183 21.324 3.7216C20.8801 6.20265 20.867 6.35937 18.2423 6.80331C18.0595 6.84253 17.942 6.947 17.942 7.1298C17.942 7.3126 18.0595 7.43016 18.2423 7.45624C20.867 7.91327 20.8801 8.06999 21.324 10.551C21.3502 10.7208 21.4677 10.8383 21.6505 10.8383ZM3.70851 14.586C3.89131 14.586 3.99577 14.4554 4.0219 14.2857C4.47893 11.8046 4.49203 11.6479 7.11671 11.204C7.28647 11.1648 7.41707 11.0603 7.41707 10.8775C7.41707 10.6947 7.28647 10.5772 7.11671 10.551C4.49203 10.094 4.47893 9.93734 4.0219 7.45624C3.99577 7.28653 3.89131 7.16897 3.70851 7.16897C3.5257 7.16897 3.4082 7.28653 3.38207 7.45624C2.92504 9.93734 2.92504 10.094 0.300304 10.551C0.117503 10.5772 0 10.6947 0 10.8775C0 11.0603 0.117503 11.1648 0.300304 11.204C2.92504 11.6479 2.92504 11.8046 3.38207 14.2857C3.4082 14.4554 3.5257 14.586 3.70851 14.586ZM25.9989 25.7508C26.5605 26.3123 27.5005 26.3123 28.01 25.7508C28.5582 25.1762 28.5582 24.2883 28.01 23.7399L15.6046 11.2823C15.0561 10.7339 14.1159 10.7339 13.5936 11.2823C13.0451 11.8569 13.0582 12.7579 13.5936 13.3063L25.9989 25.7508ZM18.4121 16.7798L14.586 12.9407C14.351 12.7057 14.2857 12.4576 14.5076 12.2225C14.7297 12.0136 14.9778 12.0658 15.2259 12.3139L19.065 16.153L18.4121 16.7798ZM9.91115 25.9598C10.1462 25.9598 10.316 25.79 10.3421 25.5419C10.773 22.0554 10.9428 21.9639 14.4816 21.3893C14.7688 21.3371 14.9386 21.2065 14.9386 20.9454C14.9386 20.6973 14.7688 20.5406 14.5338 20.5014C10.9689 19.8224 10.773 19.8355 10.3421 16.3489C10.316 16.1008 10.1462 15.9311 9.91115 15.9311C9.66305 15.9311 9.49329 16.1008 9.46721 16.3358C9.01013 19.8746 8.87959 19.9921 5.27549 20.5014C5.04049 20.5275 4.87072 20.6973 4.87072 20.9454C4.87072 21.1935 5.04049 21.3371 5.27549 21.3893C8.87959 22.0814 8.99709 22.0814 9.46721 25.568C9.49329 25.79 9.66305 25.9598 9.91115 25.9598Z" fill="white"/>
</svg>
