<svg width="122" height="122" viewBox="0 0 122 122" fill="none" xmlns="http://www.w3.org/2000/svg">
<rect x="0.625" y="0.625" width="120.75" height="120.75" stroke="#D0D5DD" stroke-width="2"/>
<path fill-rule="evenodd" clip-rule="evenodd" d="M61.5001 31.4434C62.3596 31.4434 63.0564 32.1401 63.0564 32.9996V59.4434H89.5001C90.3596 59.4434 91.0564 60.1401 91.0564 60.9996C91.0564 61.8591 90.3596 62.5559 89.5001 62.5559H63.0564V88.9996C63.0564 89.8591 62.3596 90.5559 61.5001 90.5559C60.6406 90.5559 59.9439 89.8591 59.9439 88.9996V62.5559H33.5001C32.6406 62.5559 31.9438 61.8591 31.9438 60.9996C31.9438 60.1401 32.6406 59.4434 33.5001 59.4434H59.9439V32.9996C59.9439 32.1401 60.6406 31.4434 61.5001 31.4434Z" fill="white"/>
<path d="M33.5 61H61.5M89.5 61H61.5M61.5 61V33M61.5 61V89" stroke="#D0D5DD" stroke-width="3.1125" stroke-linecap="round" stroke-linejoin="round"/>
</svg>
